# xmcd
#
# Track frame offsets: 
#        150
#        15435
#        31305
#        45618
#        58480
#        73835
#        86710
#        99250
#        113410
#        127150
#        142495
#        156570
#        169945
#        182113
#        197778
#        211855
#        226020
#        238320
#        254188
#        267130
#        278953
#        292310
#        306893
#        319883
#        334128
#
# Disc length: 4619 seconds
#
# Revision: 3
# Processed by: cddbd v1.5.2PL0 Copyright (c) Steve Scherf et al.
# Submitted via: ExactAudioCopy v0.99pb4
#
DISCID=90120919
DTITLE=Various Artist - The Ultimate Blues - True Blues
DYEAR=1996
DGENRE=Blues
TTITLE0=Bessie Smith - Careless Love Blues
TTITLE1=Tampa Red - My Daddy Rocks Me
TTITLE2=Son House - My Black Mama
TTITLE3=Cripple Clarenee Lofton - Pine Tops Boogie Woogie
TTITLE4=Muddy Waters - Country Blues
TTITLE5=Barbecue Bob - Chocolate To The Bone
TTITLE6=Memphis Jug Band - Gator Wobble
TTITLE7=Bessie Smith - Young Woman's Blues
TTITLE8=Blind Willie McTell - Searey Day Blues
TTITLE9=Cleo Gibson - I've Got Ford Movements In My Hips
TTITLE10=Hamburn Willie Newburn - Roll And Tumble Blues
TTITLE11=Robert Johnson - I Believe I'll Dust My Broom
TTITLE12=Big Bill Broonzy - Midnight Steppers
TTITLE13=Tommy Johnson - Maggie Campbell Blues
TTITLE14=Leadbelly - Midnight Special
TTITLE15=Curley Weaver - No No Blues
TTITLE16=Chippie Hill - Trouble In Mind
TTITLE17=Montana Taylor - Indiana Avenue Stomp
TTITLE18=Mississippi John Hurt - Got The Blues, Can't Be Satisfied
TTITLE19=Red Nelson - Crying Mother Blues
TTITLE20=Johnny Temple - Louise Louise Blues
TTITLE21=Clara Smith - Whip It To A Jelly
TTITLE22=Big Macco - Worried Life Blues
TTITLE23=Pine Top Smith - I'm Sober Now
TTITLE24=Tommy McClennan - Baby Please Don't Tell On Me
EXTD=ID3G:   0
EXTT0=
EXTT1=
EXTT2=
EXTT3=
EXTT4=
EXTT5=
EXTT6=
EXTT7=
EXTT8=
EXTT9=
EXTT10=
EXTT11=
EXTT12=
EXTT13=
EXTT14=
EXTT15=
EXTT16=
EXTT17=
EXTT18=
EXTT19=
EXTT20=
EXTT21=
EXTT22=
EXTT23=
EXTT24=
PLAYORDER=
